/* XPM */
static char * menu_close_32x32_xpm[] = {
"32 32 2 1",
" 	c None",
".	c #000000",
"  .                          .  ",
" ....                      .....",
"......                    ......",
".......                  .......",
" .......                ....... ",
"  .......              .......  ",
"   .......            .......   ",
"    .......          .......    ",
"     .......        .......     ",
"      .......      .......      ",
"       .......    .......       ",
"        .......  .......        ",
"         ..............         ",
"          ............          ",
"           ..........           ",
"            ........            ",
"            ........            ",
"           ..........           ",
"          ............          ",
"         ..............         ",
"        .......  .......        ",
"       .......    .......       ",
"      .......      .......      ",
"     .......        .......     ",
"    .......          .......    ",
"   .......            .......   ",
"  .......              .......  ",
" .......                ....... ",
" ......                  .......",
"......                    ......",
".....                      .....",
" ...                        ... "};
