/* XPM */
static char * station_32x32_xpm[] = {
"32 32 86 1",
" 	c None",
".	c #267F00",
"+	c #298000",
"@	c #4F9000",
"#	c #6F9D00",
"$	c #7EA300",
"%	c #7CA200",
"&	c #6D9C00",
"*	c #4A8E00",
"=	c #288000",
"-	c #5B9500",
";	c #B3B900",
">	c #F3D300",
",	c #FFD800",
"'	c #EED100",
")	c #ABB600",
"!	c #519100",
"~	c #488D00",
"{	c #C7C100",
"]	c #BABC00",
"^	c #3F8900",
"/	c #77A000",
"(	c #F7D500",
"_	c #F1D200",
":	c #679A00",
"<	c #8AA800",
"[	c #FDD700",
"}	c #76A000",
"|	c #D9C800",
"1	c #338400",
"2	c #BFBE00",
"3	c #FCD700",
"4	c #639800",
"5	c #478C00",
"6	c #D6C700",
"7	c #BBBC00",
"8	c #EDD100",
"9	c #398700",
"0	c #C4C000",
"a	c #ADB600",
"b	c #579300",
"c	c #448B00",
"d	c #B0B700",
"e	c #98AE00",
"f	c #DCCA00",
"g	c #4D8F00",
"h	c #378600",
"i	c #6E9C00",
"j	c #9FB100",
"k	c #B5BA00",
"l	c #589300",
"m	c #689A00",
"n	c #81A400",
"o	c #699A00",
"p	c #729E00",
"q	c #8CA900",
"r	c #5C9500",
"s	c #539200",
"t	c #3D8900",
"u	c #2C8100",
"v	c #E5CE00",
"w	c #BCBC00",
"x	c #A5B300",
"y	c #277F00",
"z	c #D5C700",
"A	c #C0BE00",
"B	c #468C00",
"C	c #92AB00",
"D	c #FBD600",
"E	c #97AD00",
"F	c #9AAF00",
"G	c #FED800",
"H	c #89A800",
"I	c #659900",
"J	c #E4CD00",
"K	c #DAC900",
"L	c #2C8200",
"M	c #7FA300",
"N	c #D7C700",
"O	c #CEC400",
"P	c #759F00",
"Q	c #418A00",
"R	c #719E00",
"S	c #A0B100",
"T	c #90AA00",
"U	c #3B8800",
"            ........            ",
"         ..............         ",
"       .....+@#$%&*=.....       ",
"      ....-;>,,,,,,')!....      ",
"     ...~{,,,,,,,,,,,,]^...     ",
"    .../(,,,,,,,,,,,,,,_:...    ",
"   ...<,,,,,,,,,,,,,,,,,[}...   ",
"   ..},,|112,,,,,,,,|112,34...  ",
"  ..5(,,6..7,,,,,,,,6..7,,89..  ",
" ...0,,,6..7,,,,,,,,6..7,,,a... ",
" ..b,,,,6..7,,,,,,,,6..7,,,[c.. ",
" ..d,,,,6..7,,,,,,,,6..7,,,,e.. ",
"..+_,,,,6..7,,,,,,,,6..7,,,,f...",
"..g,,,,,6..7,,,,,,,,6..7,,,,,h..",
"..i,,,,,6..j66666666k..7,,,,,l..",
"..$,,,,,6..............7,,,,,m..",
"..n,,,,,6..............7,,,,,o..",
"..p,,,,,6..q77777777j..7,,,,,r..",
"..s,,,,,6..7,,,,,,,,6..7,,,,,t..",
"..u(,,,,6..7,,,,,,,,6..7,,,,v...",
" ..w,,,,6..7,,,,,,,,6..7,,,,x.. ",
" ..:,,,,6..7,,,,,,,,6..7,,,,!.. ",
" ..yz,,,6..7,,,,,,,,6..7,,,A... ",
"  ..l[,,6..7,,,,,,,,6..7,,(B..  ",
"  ...C,,6..7,,,,,,,,6..7,,%...  ",
"   ..y),3__D,,,,,,,,3__D,E...   ",
"    ..=FG,,,,,,,,,,,,,,3H...    ",
"     ...IJ,,,,,,,,,,,,Kl...     ",
"      ...LMN,,,,,,,GOP+...      ",
"       .....QRCSjT&U.....       ",
"         ..............         ",
"            ........            "};
